<svg width="21" height="21" viewBox="0 0 21 21" fill="none" xmlns="http://www.w3.org/2000/svg">
<path d="M7.84702 18.9201C8.62022 18.9201 9.24702 18.2933 9.24702 17.5201C9.24702 16.7469 8.62022 16.1201 7.84702 16.1201C7.07382 16.1201 6.44702 16.7469 6.44702 17.5201C6.44702 18.2933 7.07382 18.9201 7.84702 18.9201Z" fill="#333333"/>
<path d="M13.847 18.9201C14.6202 18.9201 15.247 18.2933 15.247 17.5201C15.247 16.7469 14.6202 16.1201 13.847 16.1201C13.0738 16.1201 12.447 16.7469 12.447 17.5201C12.447 18.2933 13.0738 18.9201 13.847 18.9201Z" fill="#333333"/>
<path d="M0.547119 2.22021L3.74712 4.22021L5.84712 12.7202H16.5471L18.5471 6.72021H8.54712" stroke="#333333"/>
</svg>
